<mxfile host="app.diagrams.net" modified="2024-01-07T18:48:38.808Z" agent="Mozilla/5.0 (Windows NT 10.0; Win64; x64) AppleWebKit/537.36 (KHTML, like Gecko) Chrome/120.0.0.0 Safari/537.36 Edg/120.0.0.0" etag="30KR1V9h27_GQFvvxX1g" version="22.1.17" type="github">
  <diagram name="Page-1" id="0783ab3e-0a74-02c8-0abd-f7b4e66b4bec">
    <mxGraphModel dx="4597" dy="2503" grid="1" gridSize="10" guides="1" tooltips="1" connect="1" arrows="1" fold="1" page="1" pageScale="1" pageWidth="850" pageHeight="1100" background="none" math="0" shadow="0">
      <root>
        <mxCell id="0" />
        <mxCell id="1" parent="0" />
        <mxCell id="NWEf_jb8Gy-yE6lWge3J-63" value="" style="group" vertex="1" connectable="0" parent="1">
          <mxGeometry x="440" y="250" width="893" height="1690" as="geometry" />
        </mxCell>
        <mxCell id="NWEf_jb8Gy-yE6lWge3J-1" value="" style="ellipse;whiteSpace=wrap;html=1;rounded=0;shadow=0;comic=0;labelBackgroundColor=none;strokeWidth=1;fillColor=#000000;fontFamily=Verdana;fontSize=12;align=center;container=0;" vertex="1" parent="NWEf_jb8Gy-yE6lWge3J-63">
          <mxGeometry x="383.0531208499336" width="47.43691899070385" height="42.78481012658228" as="geometry" />
        </mxCell>
        <mxCell id="NWEf_jb8Gy-yE6lWge3J-2" value="User browse internet" style="rounded=1;whiteSpace=wrap;html=1;shadow=0;comic=0;labelBackgroundColor=none;strokeWidth=1;fontFamily=Verdana;fontSize=12;align=center;arcSize=50;container=0;" vertex="1" parent="NWEf_jb8Gy-yE6lWge3J-63">
          <mxGeometry x="317.82735723771583" y="96.26582278481013" width="177.88844621513942" height="32.08860759493671" as="geometry" />
        </mxCell>
        <mxCell id="NWEf_jb8Gy-yE6lWge3J-23" style="edgeStyle=orthogonalEdgeStyle;rounded=0;orthogonalLoop=1;jettySize=auto;html=1;entryX=0.5;entryY=0;entryDx=0;entryDy=0;" edge="1" parent="NWEf_jb8Gy-yE6lWge3J-63" source="NWEf_jb8Gy-yE6lWge3J-1" target="NWEf_jb8Gy-yE6lWge3J-2">
          <mxGeometry relative="1" as="geometry" />
        </mxCell>
        <mxCell id="NWEf_jb8Gy-yE6lWge3J-3" value="User click extension icon" style="rounded=1;whiteSpace=wrap;html=1;shadow=0;comic=0;labelBackgroundColor=none;strokeWidth=1;fontFamily=Verdana;fontSize=12;align=center;arcSize=50;container=0;" vertex="1" parent="NWEf_jb8Gy-yE6lWge3J-63">
          <mxGeometry x="305.9681274900398" y="181.8354430379747" width="201.6069057104914" height="32.08860759493671" as="geometry" />
        </mxCell>
        <mxCell id="NWEf_jb8Gy-yE6lWge3J-24" style="edgeStyle=orthogonalEdgeStyle;rounded=0;orthogonalLoop=1;jettySize=auto;html=1;" edge="1" parent="NWEf_jb8Gy-yE6lWge3J-63" source="NWEf_jb8Gy-yE6lWge3J-2" target="NWEf_jb8Gy-yE6lWge3J-3">
          <mxGeometry relative="1" as="geometry" />
        </mxCell>
        <mxCell id="NWEf_jb8Gy-yE6lWge3J-6" value="" style="html=1;whiteSpace=wrap;aspect=fixed;shape=isoRectangle;" vertex="1" parent="NWEf_jb8Gy-yE6lWge3J-63">
          <mxGeometry x="387.01410358565744" y="951.9620253164558" width="35.650121616287144" height="21.392212190991387" as="geometry" />
        </mxCell>
        <mxCell id="NWEf_jb8Gy-yE6lWge3J-7" value="User Clicks the turn on button" style="rounded=1;whiteSpace=wrap;html=1;shadow=0;comic=0;labelBackgroundColor=none;strokeWidth=1;fontFamily=Verdana;fontSize=12;align=center;arcSize=50;container=0;" vertex="1" parent="NWEf_jb8Gy-yE6lWge3J-63">
          <mxGeometry x="632.0969455511288" y="272.753164556962" width="260.9030544488712" height="32.08860759493671" as="geometry" />
        </mxCell>
        <mxCell id="NWEf_jb8Gy-yE6lWge3J-9" value="Web scraped the page" style="rounded=1;whiteSpace=wrap;html=1;shadow=0;comic=0;labelBackgroundColor=none;strokeWidth=1;fontFamily=Verdana;fontSize=12;align=center;arcSize=50;container=0;" vertex="1" parent="NWEf_jb8Gy-yE6lWge3J-63">
          <mxGeometry x="311.88588313413015" y="545.506329113924" width="189.7476759628154" height="32.08860759493671" as="geometry" />
        </mxCell>
        <mxCell id="NWEf_jb8Gy-yE6lWge3J-10" value="Send the scrapped data to the dataset" style="rounded=1;whiteSpace=wrap;html=1;shadow=0;comic=0;labelBackgroundColor=none;strokeWidth=1;fontFamily=Verdana;fontSize=12;align=center;arcSize=50;container=0;" vertex="1" parent="NWEf_jb8Gy-yE6lWge3J-63">
          <mxGeometry x="317.81549800796813" y="620.379746835443" width="177.88844621513942" height="32.08860759493671" as="geometry" />
        </mxCell>
        <mxCell id="NWEf_jb8Gy-yE6lWge3J-28" style="edgeStyle=orthogonalEdgeStyle;rounded=0;orthogonalLoop=1;jettySize=auto;html=1;entryX=0.5;entryY=0;entryDx=0;entryDy=0;" edge="1" parent="NWEf_jb8Gy-yE6lWge3J-63" source="NWEf_jb8Gy-yE6lWge3J-9" target="NWEf_jb8Gy-yE6lWge3J-10">
          <mxGeometry relative="1" as="geometry" />
        </mxCell>
        <mxCell id="NWEf_jb8Gy-yE6lWge3J-11" value="Run machine learning classification model&amp;nbsp;" style="rounded=1;whiteSpace=wrap;html=1;shadow=0;comic=0;labelBackgroundColor=none;strokeWidth=1;fontFamily=Verdana;fontSize=12;align=center;arcSize=50;container=0;" vertex="1" parent="NWEf_jb8Gy-yE6lWge3J-63">
          <mxGeometry x="311.88588313413015" y="700.6012658227849" width="189.7476759628154" height="32.08860759493671" as="geometry" />
        </mxCell>
        <mxCell id="NWEf_jb8Gy-yE6lWge3J-29" style="edgeStyle=orthogonalEdgeStyle;rounded=0;orthogonalLoop=1;jettySize=auto;html=1;entryX=0.5;entryY=0;entryDx=0;entryDy=0;" edge="1" parent="NWEf_jb8Gy-yE6lWge3J-63" source="NWEf_jb8Gy-yE6lWge3J-10" target="NWEf_jb8Gy-yE6lWge3J-11">
          <mxGeometry relative="1" as="geometry" />
        </mxCell>
        <mxCell id="NWEf_jb8Gy-yE6lWge3J-12" value="Send the classification data to the extension" style="rounded=1;whiteSpace=wrap;html=1;shadow=0;comic=0;labelBackgroundColor=none;strokeWidth=1;fontFamily=Verdana;fontSize=12;align=center;arcSize=50;container=0;" vertex="1" parent="NWEf_jb8Gy-yE6lWge3J-63">
          <mxGeometry x="317.81549800796813" y="780.8227848101267" width="177.88844621513942" height="32.08860759493671" as="geometry" />
        </mxCell>
        <mxCell id="NWEf_jb8Gy-yE6lWge3J-30" style="edgeStyle=orthogonalEdgeStyle;rounded=0;orthogonalLoop=1;jettySize=auto;html=1;entryX=0.5;entryY=0;entryDx=0;entryDy=0;" edge="1" parent="NWEf_jb8Gy-yE6lWge3J-63" source="NWEf_jb8Gy-yE6lWge3J-11" target="NWEf_jb8Gy-yE6lWge3J-12">
          <mxGeometry relative="1" as="geometry" />
        </mxCell>
        <mxCell id="NWEf_jb8Gy-yE6lWge3J-13" value="Spoiler Content is blurred" style="rounded=1;whiteSpace=wrap;html=1;shadow=0;comic=0;labelBackgroundColor=none;strokeWidth=1;fontFamily=Verdana;fontSize=12;align=center;arcSize=50;container=0;" vertex="1" parent="NWEf_jb8Gy-yE6lWge3J-63">
          <mxGeometry x="305.9562682602922" y="866.3924050632912" width="201.6069057104914" height="32.08860759493671" as="geometry" />
        </mxCell>
        <mxCell id="NWEf_jb8Gy-yE6lWge3J-31" style="edgeStyle=orthogonalEdgeStyle;rounded=0;orthogonalLoop=1;jettySize=auto;html=1;entryX=0.5;entryY=0;entryDx=0;entryDy=0;" edge="1" parent="NWEf_jb8Gy-yE6lWge3J-63" source="NWEf_jb8Gy-yE6lWge3J-12" target="NWEf_jb8Gy-yE6lWge3J-13">
          <mxGeometry relative="1" as="geometry" />
        </mxCell>
        <mxCell id="NWEf_jb8Gy-yE6lWge3J-14" value="" style="shape=mxgraph.bpmn.shape;html=1;verticalLabelPosition=bottom;labelBackgroundColor=#ffffff;verticalAlign=top;perimeter=ellipsePerimeter;outline=end;symbol=terminate;rounded=0;shadow=0;comic=0;strokeWidth=1;fontFamily=Verdana;fontSize=12;align=center;container=0;" vertex="1" parent="NWEf_jb8Gy-yE6lWge3J-63">
          <mxGeometry x="383.0649800796813" y="1647.2151898734176" width="47.43691899070385" height="42.78481012658228" as="geometry" />
        </mxCell>
        <mxCell id="NWEf_jb8Gy-yE6lWge3J-15" value="User see the spoiler" style="rounded=1;whiteSpace=wrap;html=1;shadow=0;comic=0;labelBackgroundColor=none;strokeWidth=1;fontFamily=Verdana;fontSize=12;align=center;arcSize=50;container=0;" vertex="1" parent="NWEf_jb8Gy-yE6lWge3J-63">
          <mxGeometry x="305.9681274900398" y="1080.3164556962024" width="201.6069057104914" height="32.08860759493671" as="geometry" />
        </mxCell>
        <mxCell id="NWEf_jb8Gy-yE6lWge3J-39" style="edgeStyle=orthogonalEdgeStyle;rounded=0;orthogonalLoop=1;jettySize=auto;html=1;entryX=0.5;entryY=0;entryDx=0;entryDy=0;" edge="1" parent="NWEf_jb8Gy-yE6lWge3J-63" source="NWEf_jb8Gy-yE6lWge3J-6" target="NWEf_jb8Gy-yE6lWge3J-15">
          <mxGeometry relative="1" as="geometry" />
        </mxCell>
        <mxCell id="NWEf_jb8Gy-yE6lWge3J-61" value="[User clicks reveal content button]" style="edgeLabel;html=1;align=center;verticalAlign=middle;resizable=0;points=[];" vertex="1" connectable="0" parent="NWEf_jb8Gy-yE6lWge3J-39">
          <mxGeometry x="0.0343" relative="1" as="geometry">
            <mxPoint as="offset" />
          </mxGeometry>
        </mxCell>
        <mxCell id="NWEf_jb8Gy-yE6lWge3J-17" value="User upvote the spoiler" style="rounded=1;whiteSpace=wrap;html=1;shadow=0;comic=0;labelBackgroundColor=none;strokeWidth=1;fontFamily=Verdana;fontSize=12;align=center;arcSize=50;container=0;" vertex="1" parent="NWEf_jb8Gy-yE6lWge3J-63">
          <mxGeometry y="1240.759493670886" width="181.83756972111556" height="32.08860759493671" as="geometry" />
        </mxCell>
        <mxCell id="NWEf_jb8Gy-yE6lWge3J-18" value="User downvote the spoiler" style="rounded=1;whiteSpace=wrap;html=1;shadow=0;comic=0;labelBackgroundColor=none;strokeWidth=1;fontFamily=Verdana;fontSize=12;align=center;arcSize=50;container=0;" vertex="1" parent="NWEf_jb8Gy-yE6lWge3J-63">
          <mxGeometry x="305.9562682602922" y="1240.759493670886" width="201.6069057104914" height="32.08860759493671" as="geometry" />
        </mxCell>
        <mxCell id="NWEf_jb8Gy-yE6lWge3J-19" value="User click hide button" style="rounded=1;whiteSpace=wrap;html=1;shadow=0;comic=0;labelBackgroundColor=none;strokeWidth=1;fontFamily=Verdana;fontSize=12;align=center;arcSize=50;container=0;" vertex="1" parent="NWEf_jb8Gy-yE6lWge3J-63">
          <mxGeometry x="596.5192563081009" y="1240.759493670886" width="177.88844621513942" height="32.08860759493671" as="geometry" />
        </mxCell>
        <mxCell id="NWEf_jb8Gy-yE6lWge3J-20" value="Model updates" style="rounded=1;whiteSpace=wrap;html=1;shadow=0;comic=0;labelBackgroundColor=none;strokeWidth=1;fontFamily=Verdana;fontSize=12;align=center;arcSize=50;container=0;" vertex="1" parent="NWEf_jb8Gy-yE6lWge3J-63">
          <mxGeometry x="205.15281540504648" y="1411.8987341772151" width="118.59229747675963" height="32.08860759493671" as="geometry" />
        </mxCell>
        <mxCell id="NWEf_jb8Gy-yE6lWge3J-26" style="edgeStyle=orthogonalEdgeStyle;rounded=0;orthogonalLoop=1;jettySize=auto;html=1;entryX=0;entryY=0.5;entryDx=0;entryDy=0;" edge="1" parent="NWEf_jb8Gy-yE6lWge3J-63" source="NWEf_jb8Gy-yE6lWge3J-21" target="NWEf_jb8Gy-yE6lWge3J-7">
          <mxGeometry relative="1" as="geometry">
            <mxPoint x="572.800796812749" y="288.7974683544304" as="targetPoint" />
          </mxGeometry>
        </mxCell>
        <mxCell id="NWEf_jb8Gy-yE6lWge3J-32" value="[Extension is not turned on]" style="edgeLabel;html=1;align=center;verticalAlign=middle;resizable=0;points=[];" vertex="1" connectable="0" parent="NWEf_jb8Gy-yE6lWge3J-26">
          <mxGeometry x="0.1471" relative="1" as="geometry">
            <mxPoint x="-16" as="offset" />
          </mxGeometry>
        </mxCell>
        <mxCell id="NWEf_jb8Gy-yE6lWge3J-21" value="" style="html=1;whiteSpace=wrap;aspect=fixed;shape=isoRectangle;" vertex="1" parent="NWEf_jb8Gy-yE6lWge3J-63">
          <mxGeometry x="387.00224435590974" y="278.10126582278485" width="35.650121616287144" height="21.392212190991387" as="geometry" />
        </mxCell>
        <mxCell id="NWEf_jb8Gy-yE6lWge3J-36" style="edgeStyle=orthogonalEdgeStyle;rounded=0;orthogonalLoop=1;jettySize=auto;html=1;entryX=0.5;entryY=0;entryDx=0;entryDy=0;" edge="1" parent="NWEf_jb8Gy-yE6lWge3J-63" source="NWEf_jb8Gy-yE6lWge3J-22" target="NWEf_jb8Gy-yE6lWge3J-9">
          <mxGeometry relative="1" as="geometry" />
        </mxCell>
        <mxCell id="NWEf_jb8Gy-yE6lWge3J-22" value="" style="html=1;whiteSpace=wrap;aspect=fixed;shape=isoRectangle;" vertex="1" parent="NWEf_jb8Gy-yE6lWge3J-63">
          <mxGeometry x="387.00224435590974" y="481.3291139240506" width="35.650121616287144" height="21.392212190991387" as="geometry" />
        </mxCell>
        <mxCell id="NWEf_jb8Gy-yE6lWge3J-27" style="edgeStyle=orthogonalEdgeStyle;rounded=0;orthogonalLoop=1;jettySize=auto;html=1;" edge="1" parent="NWEf_jb8Gy-yE6lWge3J-63" source="NWEf_jb8Gy-yE6lWge3J-21" target="NWEf_jb8Gy-yE6lWge3J-22">
          <mxGeometry relative="1" as="geometry">
            <mxPoint x="406.76565073041127" y="352.9746835443038" as="targetPoint" />
          </mxGeometry>
        </mxCell>
        <mxCell id="NWEf_jb8Gy-yE6lWge3J-33" value="[Extension is turned on]" style="edgeLabel;html=1;align=center;verticalAlign=middle;resizable=0;points=[];" vertex="1" connectable="0" parent="NWEf_jb8Gy-yE6lWge3J-27">
          <mxGeometry x="-0.1764" y="1" relative="1" as="geometry">
            <mxPoint as="offset" />
          </mxGeometry>
        </mxCell>
        <mxCell id="NWEf_jb8Gy-yE6lWge3J-25" style="edgeStyle=orthogonalEdgeStyle;rounded=0;orthogonalLoop=1;jettySize=auto;html=1;entryX=0.5;entryY=0.071;entryDx=0;entryDy=0;entryPerimeter=0;" edge="1" parent="NWEf_jb8Gy-yE6lWge3J-63" source="NWEf_jb8Gy-yE6lWge3J-3" target="NWEf_jb8Gy-yE6lWge3J-21">
          <mxGeometry relative="1" as="geometry" />
        </mxCell>
        <mxCell id="NWEf_jb8Gy-yE6lWge3J-35" style="edgeStyle=orthogonalEdgeStyle;rounded=0;orthogonalLoop=1;jettySize=auto;html=1;entryX=1.011;entryY=0.5;entryDx=0;entryDy=0;entryPerimeter=0;exitX=0.5;exitY=1;exitDx=0;exitDy=0;" edge="1" parent="NWEf_jb8Gy-yE6lWge3J-63" source="NWEf_jb8Gy-yE6lWge3J-7" target="NWEf_jb8Gy-yE6lWge3J-22">
          <mxGeometry relative="1" as="geometry" />
        </mxCell>
        <mxCell id="NWEf_jb8Gy-yE6lWge3J-37" style="edgeStyle=orthogonalEdgeStyle;rounded=0;orthogonalLoop=1;jettySize=auto;html=1;entryX=0.507;entryY=-0.028;entryDx=0;entryDy=0;entryPerimeter=0;" edge="1" parent="NWEf_jb8Gy-yE6lWge3J-63" source="NWEf_jb8Gy-yE6lWge3J-13" target="NWEf_jb8Gy-yE6lWge3J-6">
          <mxGeometry relative="1" as="geometry" />
        </mxCell>
        <mxCell id="NWEf_jb8Gy-yE6lWge3J-44" style="edgeStyle=orthogonalEdgeStyle;rounded=0;orthogonalLoop=1;jettySize=auto;html=1;entryX=0.5;entryY=0;entryDx=0;entryDy=0;exitX=0.25;exitY=1;exitDx=0;exitDy=0;" edge="1" parent="NWEf_jb8Gy-yE6lWge3J-63" source="NWEf_jb8Gy-yE6lWge3J-42" target="NWEf_jb8Gy-yE6lWge3J-17">
          <mxGeometry relative="1" as="geometry" />
        </mxCell>
        <mxCell id="NWEf_jb8Gy-yE6lWge3J-45" style="edgeStyle=orthogonalEdgeStyle;rounded=0;orthogonalLoop=1;jettySize=auto;html=1;entryX=0.5;entryY=0;entryDx=0;entryDy=0;" edge="1" parent="NWEf_jb8Gy-yE6lWge3J-63" source="NWEf_jb8Gy-yE6lWge3J-42" target="NWEf_jb8Gy-yE6lWge3J-18">
          <mxGeometry relative="1" as="geometry" />
        </mxCell>
        <mxCell id="NWEf_jb8Gy-yE6lWge3J-46" style="edgeStyle=orthogonalEdgeStyle;rounded=0;orthogonalLoop=1;jettySize=auto;html=1;exitX=0.75;exitY=1;exitDx=0;exitDy=0;" edge="1" parent="NWEf_jb8Gy-yE6lWge3J-63" source="NWEf_jb8Gy-yE6lWge3J-42" target="NWEf_jb8Gy-yE6lWge3J-19">
          <mxGeometry relative="1" as="geometry" />
        </mxCell>
        <mxCell id="NWEf_jb8Gy-yE6lWge3J-42" value="" style="rounded=0;whiteSpace=wrap;html=1;fillColor=#000000;" vertex="1" parent="NWEf_jb8Gy-yE6lWge3J-63">
          <mxGeometry x="335.6043426294821" y="1165.8860759493673" width="142.31075697211156" height="10.69620253164557" as="geometry" />
        </mxCell>
        <mxCell id="NWEf_jb8Gy-yE6lWge3J-40" style="edgeStyle=orthogonalEdgeStyle;rounded=0;orthogonalLoop=1;jettySize=auto;html=1;entryX=0.5;entryY=0;entryDx=0;entryDy=0;" edge="1" parent="NWEf_jb8Gy-yE6lWge3J-63" source="NWEf_jb8Gy-yE6lWge3J-15" target="NWEf_jb8Gy-yE6lWge3J-42">
          <mxGeometry relative="1" as="geometry">
            <mxPoint x="406.77158034528554" y="1165.8860759493673" as="targetPoint" />
          </mxGeometry>
        </mxCell>
        <mxCell id="NWEf_jb8Gy-yE6lWge3J-49" style="edgeStyle=orthogonalEdgeStyle;rounded=0;orthogonalLoop=1;jettySize=auto;html=1;entryX=0.5;entryY=0;entryDx=0;entryDy=0;" edge="1" parent="NWEf_jb8Gy-yE6lWge3J-63" source="NWEf_jb8Gy-yE6lWge3J-47" target="NWEf_jb8Gy-yE6lWge3J-20">
          <mxGeometry relative="1" as="geometry" />
        </mxCell>
        <mxCell id="NWEf_jb8Gy-yE6lWge3J-47" value="" style="rounded=0;whiteSpace=wrap;html=1;fillColor=#000000;" vertex="1" parent="NWEf_jb8Gy-yE6lWge3J-63">
          <mxGeometry x="193.29358565737053" y="1358.4177215189873" width="142.31075697211156" height="10.69620253164557" as="geometry" />
        </mxCell>
        <mxCell id="NWEf_jb8Gy-yE6lWge3J-50" style="edgeStyle=orthogonalEdgeStyle;rounded=0;orthogonalLoop=1;jettySize=auto;html=1;entryX=0.25;entryY=0;entryDx=0;entryDy=0;exitX=0.5;exitY=1;exitDx=0;exitDy=0;" edge="1" parent="NWEf_jb8Gy-yE6lWge3J-63" source="NWEf_jb8Gy-yE6lWge3J-17" target="NWEf_jb8Gy-yE6lWge3J-47">
          <mxGeometry relative="1" as="geometry" />
        </mxCell>
        <mxCell id="NWEf_jb8Gy-yE6lWge3J-52" value="" style="rounded=0;whiteSpace=wrap;html=1;fillColor=#000000;" vertex="1" parent="NWEf_jb8Gy-yE6lWge3J-63">
          <mxGeometry x="335.6043426294821" y="1497.4683544303798" width="142.31075697211156" height="10.69620253164557" as="geometry" />
        </mxCell>
        <mxCell id="NWEf_jb8Gy-yE6lWge3J-60" style="edgeStyle=orthogonalEdgeStyle;rounded=0;orthogonalLoop=1;jettySize=auto;html=1;entryX=0.5;entryY=0;entryDx=0;entryDy=0;" edge="1" parent="NWEf_jb8Gy-yE6lWge3J-63" source="NWEf_jb8Gy-yE6lWge3J-56" target="NWEf_jb8Gy-yE6lWge3J-14">
          <mxGeometry relative="1" as="geometry" />
        </mxCell>
        <mxCell id="NWEf_jb8Gy-yE6lWge3J-56" value="" style="html=1;whiteSpace=wrap;aspect=fixed;shape=isoRectangle;" vertex="1" parent="NWEf_jb8Gy-yE6lWge3J-63">
          <mxGeometry x="387.01410358565744" y="1583.0379746835442" width="35.650121616287144" height="21.392212190991387" as="geometry" />
        </mxCell>
        <mxCell id="NWEf_jb8Gy-yE6lWge3J-57" style="edgeStyle=orthogonalEdgeStyle;rounded=0;orthogonalLoop=1;jettySize=auto;html=1;entryX=0.5;entryY=0.007;entryDx=0;entryDy=0;entryPerimeter=0;" edge="1" parent="NWEf_jb8Gy-yE6lWge3J-63" source="NWEf_jb8Gy-yE6lWge3J-52" target="NWEf_jb8Gy-yE6lWge3J-56">
          <mxGeometry relative="1" as="geometry" />
        </mxCell>
        <mxCell id="NWEf_jb8Gy-yE6lWge3J-58" style="edgeStyle=orthogonalEdgeStyle;rounded=0;orthogonalLoop=1;jettySize=auto;html=1;entryX=0.973;entryY=0.502;entryDx=0;entryDy=0;entryPerimeter=0;exitX=1.024;exitY=0.503;exitDx=0;exitDy=0;exitPerimeter=0;" edge="1" parent="NWEf_jb8Gy-yE6lWge3J-63" source="NWEf_jb8Gy-yE6lWge3J-6" target="NWEf_jb8Gy-yE6lWge3J-56">
          <mxGeometry relative="1" as="geometry">
            <Array as="points">
              <mxPoint x="798.1261620185924" y="962.6582278481012" />
              <mxPoint x="798.1261620185924" y="1593.73417721519" />
            </Array>
          </mxGeometry>
        </mxCell>
        <mxCell id="NWEf_jb8Gy-yE6lWge3J-62" value="[User does not clicks reveal content button]" style="edgeLabel;html=1;align=center;verticalAlign=middle;resizable=0;points=[];" vertex="1" connectable="0" parent="NWEf_jb8Gy-yE6lWge3J-58">
          <mxGeometry x="-0.7106" y="1" relative="1" as="geometry">
            <mxPoint as="offset" />
          </mxGeometry>
        </mxCell>
        <mxCell id="NWEf_jb8Gy-yE6lWge3J-51" style="edgeStyle=orthogonalEdgeStyle;rounded=0;orthogonalLoop=1;jettySize=auto;html=1;entryX=0.75;entryY=0;entryDx=0;entryDy=0;" edge="1" parent="NWEf_jb8Gy-yE6lWge3J-63" source="NWEf_jb8Gy-yE6lWge3J-18" target="NWEf_jb8Gy-yE6lWge3J-47">
          <mxGeometry relative="1" as="geometry" />
        </mxCell>
        <mxCell id="NWEf_jb8Gy-yE6lWge3J-53" style="edgeStyle=orthogonalEdgeStyle;rounded=0;orthogonalLoop=1;jettySize=auto;html=1;entryX=0.75;entryY=0;entryDx=0;entryDy=0;exitX=0.5;exitY=1;exitDx=0;exitDy=0;" edge="1" parent="NWEf_jb8Gy-yE6lWge3J-63" source="NWEf_jb8Gy-yE6lWge3J-19" target="NWEf_jb8Gy-yE6lWge3J-52">
          <mxGeometry relative="1" as="geometry" />
        </mxCell>
        <mxCell id="NWEf_jb8Gy-yE6lWge3J-54" style="edgeStyle=orthogonalEdgeStyle;rounded=0;orthogonalLoop=1;jettySize=auto;html=1;entryX=0.25;entryY=0;entryDx=0;entryDy=0;" edge="1" parent="NWEf_jb8Gy-yE6lWge3J-63" source="NWEf_jb8Gy-yE6lWge3J-20" target="NWEf_jb8Gy-yE6lWge3J-52">
          <mxGeometry relative="1" as="geometry" />
        </mxCell>
      </root>
    </mxGraphModel>
  </diagram>
</mxfile>
